<?xml version="1.0" encoding="utf-8"?>
<!-- Generator: Adobe Illustrator 12.0.1, SVG Export Plug-In . SVG Version: 6.00 Build 51448)  -->
<!DOCTYPE svg PUBLIC "-//W3C//DTD SVG 1.1//EN" "http://www.w3.org/Graphics/SVG/1.1/DTD/svg11.dtd" [
	<!ENTITY ns_svg "http://www.w3.org/2000/svg">
	<!ENTITY ns_xlink "http://www.w3.org/1999/xlink">
]>
<svg  version="1.1" id="Layer_1" xmlns="&ns_svg;" xmlns:xlink="&ns_xlink;" width="93" height="115.717" viewBox="0 0 93 115.717"
	 overflow="visible" enable-background="new 0 0 93 115.717" xml:space="preserve">
<path fill="#C70000" d="M62.705,21.658c0.011,0,0.017-0.003,0.025-0.011c1.223-0.669,1.501-1.688,1.561-2.185V6.678
	C64.291,2.992,61.215,0,57.415,0h-9.309c-0.04,0.006-0.072,0.006-0.116,0.011c-4.253,0.447-3.411,2.526-5.05,1.245
	C41.774,0.335,39.735,0.072,38.657,0H25.075c-0.04,0.006-0.076,0.006-0.117,0.011c-4.249,0.447-3.41,2.526-5.047,1.245
	C18.743,0.335,16.704,0.072,15.627,0H6.878C3.079,0,0,2.992,0,6.678V17.68c0,3.357,2.669,2.479,2.714,6.236
	c0.017,1.465-1.307,2.835-1.891,3.531l0.017-0.011c0,0-0.776,0.749-0.84,2.267v16.676c0,3.429,4.03,4.217,2.361,8.844
	c-0.587,1.62-2.491,2.313-2.238,3.58c0.574,2.835,3.395,5.431,6.755,5.431h2.102c4.106-0.477,3.307-2.492,4.928-1.223
	c1.053,0.818,2.807,1.113,3.935,1.223h11.296c4.109-0.477,3.307-2.492,4.928-1.223c1.051,0.818,2.806,1.113,3.936,1.223h11.384
	c4.108-0.477,3.31-2.492,4.931-1.223c0.99,0.77,2.604,1.076,3.73,1.201c3.08-0.209,5.958-1.934,5.93-4.834
	c-0.011-0.777-0.318-1.29-0.493-1.714c-0.18-0.42-1.328-1.809-1.643-2.279c-0.321-0.463-0.461-0.915-0.576-1.359
	c-0.512-1.981,0.771-3.285,1.72-4.586c1.537-2.104,1.277-4.18,1.308-4.704V29.925c-0.096-1.417-0.762-2.207-0.762-2.207l0.013,0.004
	c-0.688-0.78-1.298-1.627-1.794-2.535h0.001c-0.215-0.379-0.337-0.817-0.337-1.271C61.412,22.965,61.931,22.13,62.705,21.658z
	 M13.001,40.232c-0.5,0.998-1.111,1.936-1.813,2.776c-0.081,0.106-0.195,0.175-0.329,0.175c-0.123,0-0.232-0.06-0.312-0.152h-0.001
	c-0.715-0.853-1.344-1.804-1.846-2.829c-0.193-0.373-0.303-0.809-0.303-1.273c0-1.459,1.101-2.646,2.461-2.646
	s2.459,1.187,2.459,2.646C13.317,39.403,13.202,39.843,13.001,40.232z M12.997,10.352c-0.51,0.962-1.134,1.854-1.848,2.655
	c-0.08,0.096-0.199,0.162-0.337,0.162c-0.124,0-0.237-0.053-0.316-0.143h-0.001c-0.727-0.812-1.363-1.721-1.881-2.697
	C8.42,9.966,8.308,9.552,8.308,9.11c0-1.398,1.123-2.528,2.505-2.528c1.386,0,2.505,1.13,2.505,2.528
	C13.317,9.565,13.202,9.985,12.997,10.352z M23.772,55.223c-0.52,1.004-1.157,1.938-1.884,2.783
	c-0.08,0.098-0.202,0.166-0.341,0.166c-0.127,0-0.24-0.058-0.322-0.148h-0.001c-0.74-0.854-1.39-1.805-1.914-2.826h0.002
	c-0.2-0.378-0.315-0.815-0.315-1.273c0-1.462,1.145-2.648,2.551-2.648c1.41,0,2.549,1.186,2.549,2.648
	C24.097,54.398,23.978,54.839,23.772,55.223z M23.966,25.502c-0.504,0.97-1.127,1.883-1.832,2.693
	c-0.194,0.246-0.479,0.384-0.784,0.384c0,0-0.736-0.331-0.741-0.338c-0.744-0.851-1.381-1.782-1.889-2.763
	c-0.24-0.45-0.365-0.958-0.365-1.467c0-1.695,1.344-3.065,2.995-3.065c1.655,0,2.999,1.37,2.999,3.065
	C24.349,24.531,24.215,25.046,23.966,25.502z M32.2,6.625c1.383,0,2.506,1.128,2.506,2.514c0,0.45-0.119,0.867-0.324,1.232
	c-0.509,0.953-1.133,1.838-1.846,2.636c-0.082,0.096-0.199,0.162-0.336,0.162c-0.128,0-0.238-0.053-0.317-0.138
	c-0.729-0.81-1.366-1.712-1.88-2.685c-0.197-0.356-0.308-0.766-0.308-1.207C29.695,7.753,30.815,6.625,32.2,6.625z M34.837,40.607
	c-0.511,0.983-1.141,1.903-1.858,2.725c-0.182,0.224-0.448,0.36-0.734,0.36c0,0-0.69-0.313-0.697-0.315
	c-0.753-0.86-1.396-1.804-1.912-2.8c-0.237-0.445-0.362-0.948-0.362-1.456c0-1.677,1.332-3.044,2.972-3.044
	c1.642,0,2.973,1.367,2.973,3.044C35.217,39.641,35.086,40.15,34.837,40.607z M45.166,55.458c-0.498,0.923-1.113,1.785-1.815,2.555
	c-0.077,0.098-0.191,0.159-0.326,0.159c-0.126,0-0.233-0.055-0.312-0.138H42.71c-0.712-0.786-1.341-1.658-1.847-2.601h0.001
	c-0.189-0.349-0.303-0.744-0.303-1.172c0-1.343,1.102-2.435,2.463-2.435c1.359,0,2.459,1.092,2.459,2.435
	C45.483,54.699,45.37,55.105,45.166,55.458z M45.619,25.612c-0.517,0.977-1.147,1.894-1.867,2.714
	c-0.18,0.217-0.446,0.354-0.728,0.354c0,0-0.69-0.311-0.697-0.317c-0.756-0.855-1.398-1.787-1.914-2.774
	c-0.237-0.446-0.363-0.947-0.363-1.453c0-1.665,1.334-3.023,2.975-3.023c1.639,0,2.973,1.358,2.973,3.023
	C45.997,24.65,45.863,25.164,45.619,25.612z M55.77,40.379c-0.511,0.955-1.135,1.842-1.85,2.642
	c-0.08,0.096-0.195,0.162-0.333,0.162c-0.13,0-0.238-0.06-0.319-0.146h-0.002c-0.727-0.811-1.362-1.714-1.879-2.688
	c-0.195-0.358-0.304-0.766-0.304-1.205c0-1.392,1.12-2.517,2.504-2.517s2.504,1.125,2.504,2.517
	C56.091,39.594,55.972,40.014,55.77,40.379z M55.777,10.352c-0.503,0.962-1.12,1.854-1.817,2.655
	c-0.08,0.096-0.195,0.162-0.329,0.162c-0.123,0-0.233-0.053-0.311-0.143c-0.72-0.812-1.345-1.721-1.851-2.697h0.004
	C51.282,9.966,51.17,9.552,51.17,9.11c0-1.398,1.101-2.528,2.461-2.528c1.358,0,2.46,1.13,2.46,2.528
	C56.091,9.565,55.976,9.985,55.777,10.352z"/>
<path fill="#F5AC94" d="M2.968,17.912c-0.146-0.044-0.242-0.006-0.296,0.1C2.604,18.157,2.64,18.37,2.82,18.479
	c1.718,1.07,2.741,2.887,2.741,4.863c0,0.981-0.263,1.951-0.757,2.815c-0.701,1.266-1.565,2.465-2.568,3.556
	c-0.371,0.467-0.36,0.672-0.344,0.691c0.038,0.042,0.373,0.077,1.046-0.239c0.934-0.443,2.132-1.56,3.286-3.066
	c0.712-0.923,1.245-2.42,1.245-3.479C7.47,20.901,5.784,18.768,2.968,17.912z M43.786,17.627c-0.102,0-0.151,0.01-0.203,0.014
	c0.063,0.039,0.146,0.077,0.238,0.097l0.392,0.11c0,0,0.378,0.136,0.425,0.155l0.086,0.034l0.484,0.224c0,0,0.052,0.025,0.079,0.042
	l0.382,0.227l0.148,0.103l0.281,0.205c0,0,0.147,0.121,0.158,0.132l0.245,0.219l0.146,0.135c0,0,0.235,0.249,0.238,0.251
	c0,0,0.118,0.135,0.118,0.139c0,0,0.258,0.328,0.28,0.357l0.04,0.058l0.278,0.443c0,0,0.045,0.079,0.066,0.125l0.17,0.342
	c0,0,0.058,0.141,0.072,0.179l0.121,0.315l0.066,0.194c0,0,0.083,0.324,0.085,0.348l0.042,0.179l0.058,0.365l0.025,0.171
	l0.023,0.552c0,0.981-0.262,1.951-0.757,2.815c-0.701,1.266-1.567,2.465-2.561,3.55l-0.095,0.108l0,0l-0.008-0.006
	c-0.646,0.708-1.55,1.122-2.526,1.122c-0.94,0-1.854-0.397-2.507-1.083c-1.067-1.151-1.984-2.416-2.707-3.731
	c-0.478-0.849-0.731-1.808-0.731-2.774c0-2.39,1.555-4.559,3.838-5.39c0,0,0.153-0.056,0.135-0.051c0,0,0.773-0.204,0.779-0.207
	c0.318-0.125,0.461-0.271,0.461-0.356l0,0c0-0.081-0.107-0.213-0.428-0.349c-1.328-0.569-2.563-1.329-2.61-3.009
	c0-0.044,0-0.083,0-0.13c0-1.279,0.538-2.601,0.548-2.641c0.272-0.719,0.406-1.456,0.406-2.201c0-3.073-2.241-5.708-5.334-6.264
	c-0.477-0.088-0.598,0.006-0.6,0.004l0,0c0,0.047,0.103,0.202,0.345,0.305l0.333,0.164c1.139,0.564,2.074,1.491,2.635,2.605
	l0.047,0.103l0.137,0.298c0,0,0.061,0.155,0.073,0.199l0.116,0.339l0.094,0.357c0,0,0.028,0.147,0.037,0.185
	c0,0,0.057,0.355,0.061,0.383l0.016,0.139l0.027,0.524c0,0.983-0.263,1.958-0.759,2.814c-0.704,1.265-1.568,2.465-2.562,3.553
	l-0.098,0.113l-0.006-0.015c-0.645,0.71-1.549,1.122-2.525,1.122c-0.938,0-1.854-0.392-2.508-1.083
	c-1.066-1.147-1.981-2.41-2.708-3.729c-0.476-0.846-0.728-1.806-0.728-2.774c0-2.527,1.74-4.797,4.266-5.533
	c0,0,0.474-0.115,0.483-0.115c0.074-0.033,0.123-0.058,0.165-0.086c-0.13-0.023-0.367-0.047-0.809-0.027
	c-2.662,0.124-4.883,1.995-5.395,4.545c-0.535,2.648-0.812,3.3-1.847,4.341c-0.411,0.409-0.952,0.669-1.472,0.919
	c-0.92,0.441-1.787,0.86-1.981,2.077c-0.27,1.667,0.9,2.631,1.697,2.846l1.661,0.421c0,0,0.16,0.042,0.211,0.06
	c2.534,0.706,4.306,2.986,4.306,5.545c0,0.981-0.263,1.951-0.759,2.815c-0.702,1.266-1.567,2.465-2.561,3.55l-0.096,0.108
	l-0.007-0.002C22.882,30.52,21.97,30.932,21,30.932c-0.692,0-1.359-0.226-1.935-0.616c-0.035-0.004-0.068-0.004-0.068-0.004
	l-2.273-1.917c-1.74-1.567-4.573-2.246-6.396-0.429c-0.757,0.753-1.076,1.834-0.834,2.824c0.219,0.887,0.857,1.564,1.748,1.864
	c0,0,0.172,0.057,0.14,0.05c0.603,0.116,1.18,0.318,1.72,0.606l0.374,0.226l0.159,0.101l0.273,0.202l0.125,0.099l0.342,0.296
	c0,0,0.117,0.115,0.126,0.13c0,0,0.233,0.243,0.233,0.248c0,0,0.104,0.115,0.107,0.116l0.283,0.367c0,0,0.057,0.088,0.083,0.126
	c0,0,0.19,0.307,0.219,0.354l0.045,0.086l0.215,0.426c0,0,0.028,0.072,0.044,0.108c0,0,0.142,0.373,0.152,0.395l0.033,0.108
	l0.131,0.489c0,0,0.007,0.041,0.01,0.062l0.072,0.448l0.016,0.139l0.023,0.524c0,0.985-0.262,1.958-0.758,2.819
	c-0.701,1.265-1.564,2.462-2.557,3.548l-0.098,0.108v0.002l-0.01-0.008c-0.642,0.708-1.549,1.118-2.524,1.118l-0.46-0.034
	l-0.118-0.022c0,0-0.425-0.1-0.448-0.102L8.768,45.62l-0.103-0.052c0,0-0.361-0.207-0.396-0.228
	c-0.039-0.028-0.104-0.062-0.167-0.087c0.038,0.066,0.087,0.151,0.175,0.265l0.739,0.906c0,0,0.312,0.286,0.315,0.303
	c0.031,0.03,2.864,2.832,8.107,1.412c2.254-0.612,3.485-0.725,4.705-0.451c0.633,0.124,1.246,0.34,1.822,0.666
	c0,0,0.056,0.036,0.08,0.053c0,0,0.482,0.307,0.506,0.326l0.092,0.064l0.238,0.191c0,0,0.089,0.077,0.117,0.101l0.354,0.337
	l0.139,0.15l0.17,0.196l0.17,0.226l0.18,0.255l0.16,0.254l0.1,0.177l0.182,0.368c0,0,0.057,0.128,0.057,0.13l0.143,0.377
	l0.049,0.152c0,0,0.126,0.471,0.131,0.509l0.074,0.474l0.015,0.132l0.029,0.522c0,0.985-0.263,1.958-0.759,2.817
	c-0.702,1.273-1.567,2.461-2.561,3.553l-0.096,0.109l0,0l-0.009-0.008c-0.644,0.705-1.55,1.115-2.525,1.115
	c-0.337,0-0.674-0.057-0.979-0.154c0.371,0.426,1.092,0.816,1.962,0.816c1.062,0,2.187-0.43,3.084-1.182
	c0.797-0.664,2.077-1.993,3.081-3.563c0.299-0.473,0.497-0.879,0.63-1.297c0,0,0.101-0.413,0.104-0.423
	c0.115-0.497,0.258-1.241,0.266-1.932l0.008-0.427c0.009-1.208,0.019-2.584,0.676-3.52c0.818-1.164,2.283-1.46,3.352-1.678
	c0,0,0.357-0.069,0.369-0.074c0.859-0.133,1.634-0.562,2.187-1.224c1.169-1.277,2.175-2.676,2.995-4.15
	c0.551-0.95,0.836-2.03,0.836-3.11c0-0.753-0.137-1.511-0.422-2.238l0.006-0.013c-0.029-0.07-0.683-1.763,0.152-3.061
	c0.758-1.184,1.83-1.542,3.695-1.246c0,0,0.096,0.004,0.146,0.011l0.639,0.058c1.062,0,2.054-0.458,2.732-1.266
	c1.168-1.282,2.175-2.674,2.993-4.15c0.547-0.955,0.838-2.027,0.838-3.117C50.35,20.486,47.406,17.627,43.786,17.627z
	 M36.794,41.177c-0.701,1.265-1.565,2.462-2.559,3.548l-0.098,0.108v0.002l-0.006-0.008c-0.645,0.708-1.549,1.118-2.525,1.118
	c-0.938,0-1.854-0.395-2.508-1.082c-1.066-1.147-1.981-2.414-2.708-3.727c-0.476-0.851-0.728-1.813-0.728-2.779
	c0-3.183,2.667-5.771,5.943-5.771c3.279,0,5.949,2.588,5.949,5.771C37.556,39.343,37.293,40.315,36.794,41.177z M54.395,32.643
	c-0.103,0-0.149,0.009-0.207,0.016c0.062,0.036,0.147,0.074,0.236,0.096c2.661,0.641,4.519,2.945,4.519,5.603
	c0,0.985-0.264,1.958-0.759,2.819c-0.701,1.265-1.566,2.462-2.561,3.548l-0.096,0.108v0.002c0,0-0.007-0.008-0.011-0.008
	c-0.643,0.708-1.55,1.118-2.521,1.118c-0.701,0-1.377-0.209-1.955-0.604c-0.036-0.028-0.104-0.062-0.164-0.087
	c0.037,0.066,0.088,0.151,0.175,0.265l0.737,0.906c0.679,0.714,1.628,1.124,2.606,1.124c1.061,0,2.053-0.463,2.73-1.271
	c1.17-1.277,2.177-2.676,2.995-4.15c0.545-0.95,0.838-2.03,0.838-3.11C60.958,35.505,58.014,32.643,54.395,32.643z M6.937,27.239
	c0.015-0.023,0.024-0.041,0.033-0.06c-0.008,0.016-0.018,0.027-0.024,0.042C6.942,27.223,6.94,27.231,6.937,27.239z M46.673,48.285
	c-0.365-0.174-0.648-0.08-0.753,0.086c-0.026,0.042-0.046,0.096-0.046,0.147c0,0.089,0.046,0.194,0.164,0.279
	c1.457,1.106,2.294,2.765,2.294,4.552c0,0.985-0.262,1.958-0.757,2.817c-0.701,1.273-1.567,2.461-2.561,3.553l-0.093,0.109H44.92
	l-0.008-0.008c-0.646,0.705-1.55,1.115-2.526,1.115c-0.699,0-1.373-0.209-1.951-0.604c-0.039-0.025-0.104-0.057-0.166-0.086
	c0.037,0.064,0.088,0.145,0.176,0.27c0.167,0.236,0.822,0.658,1.223,0.826c1.282,0.537,2.763,0.4,4.057-0.385
	c1.59-0.967,2.97-2.366,3.788-3.836c0.547-0.953,0.838-2.029,0.838-3.113C50.35,51.562,48.94,49.366,46.673,48.285z M51.788,16.416
	c0.679,0.714,1.628,1.122,2.606,1.122c1.058,0,2.051-0.459,2.727-1.267l0.004-0.007l0,0c1.17-1.274,2.177-2.674,2.995-4.149
	c0.545-0.951,0.838-2.025,0.838-3.106c0-2.719-1.752-5.134-4.366-6.009c-0.529-0.177-0.829-0.124-0.887-0.008
	c-0.038,0.089,0.018,0.228,0.109,0.277c1.928,1.012,3.128,2.959,3.128,5.08c0,0.983-0.264,1.958-0.759,2.814
	c-0.701,1.265-1.566,2.465-2.561,3.553l-0.096,0.113c0,0-0.007-0.015-0.011-0.015c-0.643,0.71-1.55,1.122-2.521,1.122
	c-0.701,0-1.377-0.209-1.955-0.606c-0.036-0.025-0.104-0.06-0.164-0.085c0.037,0.064,0.088,0.147,0.175,0.265L51.788,16.416z
	 M9.016,16.416c0.679,0.714,1.63,1.122,2.606,1.122c1.057,0,2.051-0.459,2.727-1.267l0.003-0.007h0.002
	c1.167-1.274,2.176-2.674,2.994-4.149c0.548-0.951,0.841-2.025,0.841-3.106c0-3.518-2.946-6.377-6.566-6.377
	c-0.103,0-0.15,0.008-0.206,0.014c0.065,0.041,0.147,0.08,0.237,0.103c2.658,0.637,4.514,2.942,4.514,5.601
	c0,0.983-0.262,1.958-0.758,2.814c-0.701,1.265-1.564,2.465-2.557,3.553l-0.098,0.113l-0.01-0.015
	c-0.642,0.71-1.549,1.122-2.524,1.122c-0.697,0-1.376-0.209-1.952-0.606c-0.039-0.025-0.104-0.06-0.167-0.085
	c0.038,0.064,0.087,0.147,0.175,0.265C8.276,15.509,9.015,16.416,9.016,16.416z M4.519,48.618c-0.621-0.382-1.236-0.205-1.373-0.011
	c-0.012,0.011-0.021,0.028-0.021,0.043c0,0.029,0.018,0.053,0.076,0.096c1.502,1.103,2.361,2.783,2.361,4.603
	c0,0.985-0.263,1.958-0.757,2.817c-0.343,0.613-0.716,1.204-1.13,1.787c-0.439,0.611-0.505,1.547,0.53,0.675
	c0.272-0.224,0.567-0.495,0.882-0.811c0.558-0.555,1.876-2.069,2.089-4.037c0.019-0.213,0.034-0.416,0.034-0.621
	C7.21,51.293,6.271,49.697,4.519,48.618z"/>
<path fill="#262626" d="M15.71,94.484h1.812c0.221,0,0.398-0.178,0.398-0.396c0,0,0-7.77,0-8.496c0.555,0,2.025,0,2.025,0
	c1.521,0,1.928,0.637,2.338,1.533l3.162,7.123c0.064,0.143,0.205,0.236,0.363,0.236h2.01c0.133,0,0.258-0.068,0.332-0.18
	c0.043-0.066,0.064-0.141,0.064-0.217c0-0.055-0.012-0.109-0.035-0.162l-3.402-7.646c-0.255-0.566-0.596-1.268-1.252-1.717
	c2.015-0.66,3.424-2.395,3.424-4.566c0-1.676-0.613-5.572-6.287-5.572H15.71c-0.221,0-0.398,0.182-0.398,0.398v19.266
	C15.312,94.307,15.489,94.484,15.71,94.484z M17.921,76.785c0.613,0,2.877,0,2.877,0c3.07,0,3.403,2.264,3.403,3.24
	c0,1.799-1.761,3.207-4.008,3.207c0,0-1.697,0-2.272,0V76.785z M83.88,74.203c-6.299,0-9.119,5.164-9.119,10.281
	c0,6.211,3.579,10.225,9.119,10.225c5.541,0,9.12-4.014,9.12-10.225C93,79.367,90.182,74.203,83.88,74.203z M83.88,92.346
	c-2.938,0-6.373-2.061-6.373-7.861c0-5.471,3.201-7.916,6.373-7.916c3.173,0,6.374,2.445,6.374,7.916
	C90.254,90.285,86.821,92.346,83.88,92.346z M71.577,74.424h-2.861c-0.159,0-0.304,0.098-0.365,0.242l-6.413,14.973
	c0,0-0.255,0.814-0.488,1.562c-0.228-0.734-0.473-1.523-0.473-1.523l-6.428-15.012c-0.062-0.145-0.206-0.242-0.365-0.242h-2.861
	c-0.221,0-0.397,0.182-0.397,0.398v19.211H48.94c-0.22,0-0.397,0.178-0.397,0.396v12.119h-3.944c-0.214,0-0.39,0.174-0.39,0.391
	v8.295c0,0.215,0.176,0.387,0.39,0.387h4.256c0.213,0,0.386-0.172,0.386-0.387v-0.676c0-0.215-0.173-0.389-0.386-0.389h-3.084
	v-2.494h2.704c0.215,0,0.391-0.174,0.391-0.389v-0.676c0-0.215-0.176-0.387-0.391-0.387h-2.704v-2.223h2.859
	c0.213,0,0.389-0.174,0.389-0.387v-0.639h6.149c0.219,0,0.397-0.182,0.397-0.398v-0.992c0-0.219-0.179-0.395-0.397-0.395
	c0,0-4.013,0-4.687,0v-3.994c0.66,0,4.132,0,4.132,0c0.221,0,0.397-0.178,0.397-0.396v-0.994c0-0.219-0.177-0.395-0.397-0.395
	c0,0-3.472,0-4.132,0v-3.596c0.667,0,4.356,0,4.356,0c0.22,0,0.397-0.178,0.397-0.396v-0.99c0-0.219-0.178-0.396-0.397-0.396h-1.303
	V79.172c0,0-0.009-0.379-0.013-0.578c0.088,0.238,0.234,0.633,0.234,0.633l6.302,14.807h-1.855c-0.219,0-0.396,0.178-0.396,0.396
	v12.148c0,0.217,0.177,0.398,0.396,0.398h1.144c0.221,0,0.397-0.182,0.397-0.398c0,0,0-4.523,0-5.207c0.436,0,1.133,0,1.133,0
	c0.874,0,1.089,0.33,1.339,0.877l1.994,4.488c0.062,0.145,0.206,0.24,0.361,0.24h1.265c0.136,0,0.261-0.07,0.333-0.184
	c0.043-0.066,0.064-0.141,0.064-0.215c0-0.057-0.011-0.111-0.032-0.162l-2.1-4.721c-0.166-0.371-0.361-0.758-0.663-1.057
	c1.19-0.5,1.998-1.602,1.998-2.945c0-0.731-0.224-2.881-2.667-3.491l6.365-14.958c0,0,0.15-0.402,0.242-0.648
	c-0.006,0.193-0.013,0.566-0.013,0.566l-0.002,14.926c0,0.219,0.179,0.396,0.397,0.396h1.817c0.221,0,0.397-0.178,0.397-0.396
	V74.822C71.975,74.605,71.798,74.424,71.577,74.424z M63.41,97.711c0,1.07-1.022,1.875-2.38,1.875c0,0-0.823,0-1.286,0v-3.77
	c0.519,0,1.669,0,1.669,0C63.151,95.816,63.41,97.004,63.41,97.711z M36.914,103.525c0-2.268-1.494-3.084-3.226-4.029
	c0-0.002-0.36-0.195-0.36-0.195c-1.294-0.689-1.968-1.096-1.968-1.99c0-1.098,0.695-1.629,2.121-1.629
	c0.799,0,1.559,0.156,2.325,0.484c0.113,0.049,0.242,0.043,0.35-0.02c0.107-0.059,0.182-0.166,0.2-0.289l0.154-1.074
	c0.029-0.189-0.084-0.371-0.266-0.434c-0.915-0.305-1.818-0.453-2.764-0.453c-3.846,0-4.145,2.613-4.145,3.414
	c0,2.105,1.669,2.98,2.887,3.621l0.375,0.193c1.229,0.65,2.291,1.209,2.291,2.484c0,1.361-1.58,1.719-2.415,1.719
	c-0.725,0-1.743-0.256-2.534-0.637c-0.114-0.057-0.251-0.051-0.363,0.01c-0.113,0.062-0.188,0.178-0.201,0.305l-0.125,1.127
	c-0.021,0.178,0.082,0.348,0.248,0.412c0.961,0.383,1.936,0.568,2.976,0.568c0.005,0,0.009-0.001,0.014-0.001v8.122
	c0,0.215,0.176,0.387,0.39,0.387h0.783c0.215,0,0.39-0.172,0.39-0.387v-8.295c0-0.009-0.004-0.017-0.005-0.025
	C36.116,106.396,36.914,104.877,36.914,103.525z M46.908,95.42v-0.99c0-0.219-0.178-0.396-0.398-0.396h-3.863
	c3.421-1.386,5.492-4.83,5.492-9.549c0-5.117-2.82-10.281-9.12-10.281c-6.302,0-9.122,5.164-9.122,10.281
	c0,5.694,3.014,9.531,7.786,10.133v0.803c0,0.219,0.178,0.396,0.396,0.396c0,0,2.614,0,3.245,0v10.757
	c-0.154,0.053-0.266,0.193-0.266,0.366v5.918c-1.002-1.666-3.686-6.121-3.686-6.121c-0.07-0.115-0.196-0.188-0.335-0.188h-1.006
	c-0.215,0-0.389,0.174-0.389,0.391v8.295c0,0.215,0.174,0.387,0.389,0.387h0.783c0.215,0,0.388-0.172,0.388-0.387v-5.891
	c0.935,1.545,3.687,6.09,3.687,6.09c0.068,0.117,0.195,0.188,0.332,0.188h1.008c0.216,0,0.389-0.172,0.389-0.387v-8.258h0.25
	c0.219,0,0.396-0.182,0.396-0.398c0,0,0-10.021,0-10.762c0.631,0,3.245,0,3.245,0C46.73,95.816,46.908,95.639,46.908,95.42z
	 M39.019,92.346c-2.939,0-6.371-2.061-6.371-7.861c0-5.471,3.199-7.916,6.371-7.916s6.372,2.445,6.372,7.916
	C45.391,90.285,41.958,92.346,39.019,92.346z M28.585,106.795c-0.023-0.062-0.069-0.106-0.117-0.147
	c0.014-0.072,0.014-0.146-0.015-0.218l-4.821-12.146c-0.061-0.15-0.207-0.25-0.37-0.25h-1.491c-0.162,0-0.309,0.1-0.369,0.25
	l-4.824,12.146c-0.049,0.123-0.033,0.26,0.041,0.369c0.074,0.107,0.195,0.178,0.328,0.178h0.471v8.258
	c0,0.215,0.176,0.387,0.389,0.387h0.781c0.215,0,0.391-0.172,0.391-0.387v-3.439h0.652c0.54,0,0.654,0.191,0.807,0.527
	c-0.001,0,1.363,3.068,1.363,3.068c0.062,0.141,0.201,0.23,0.354,0.23h0.864c0.133,0,0.257-0.064,0.327-0.176
	c0.073-0.109,0.084-0.25,0.03-0.369l-1.435-3.223c-0.001-0.004-0.028-0.068-0.028-0.068c-0.075-0.166-0.176-0.369-0.318-0.555
	c0.768-0.389,1.27-1.158,1.27-2.062c0-0.615-0.213-2.619-2.926-2.619h-1.323c0.236-0.593,1.022-2.562,1.167-2.924h5.467
	c0.171,0.428,1.234,3.098,1.234,3.098c0.051,0.127,0.166,0.204,0.295,0.231l-3.231,8.136c-0.048,0.121-0.034,0.254,0.04,0.363
	c0.071,0.107,0.192,0.168,0.321,0.168h0.84c0.16,0,0.303-0.096,0.363-0.242l0.814-2.045H29.5l0.814,2.045
	c0.06,0.146,0.202,0.242,0.361,0.242h0.839c0.131,0,0.251-0.061,0.323-0.168c0.072-0.109,0.087-0.242,0.04-0.363L28.585,106.795z
	 M18.978,108.002h1.021c1.03,0,1.247,0.639,1.247,1.176c0,0.652-0.664,1.164-1.508,1.164h-0.76V108.002z M20.481,101.842
	c0.352-0.887,1.987-4.99,1.987-4.99s0.038-0.105,0.047-0.135c0.007,0.023,0.04,0.121,0.04,0.121s1.643,4.117,1.995,5.004H20.481z
	 M26.497,111.883l1.217-3.053c0.227,0.574,0.875,2.201,1.215,3.053H26.497z M12.462,110.861l3.743-3.645
	c0.114-0.109,0.148-0.277,0.088-0.426c-0.06-0.148-0.2-0.242-0.36-0.242h-0.994c-0.008,0-0.016,0.004-0.023,0.005V94.43
	c0-0.219-0.179-0.396-0.398-0.396h-1.803c-0.158,0-0.303,0.094-0.365,0.238l-4.042,9.438c0,0-0.097,0.307-0.173,0.553
	c-0.069-0.223-0.159-0.512-0.159-0.512l-4.058-9.479c0.03-0.056,0.051-0.116,0.051-0.184c0,0,0-7.031,0-7.748
	c0.609,0,2.795,0,2.795,0c3.754,0,6.178-2.34,6.178-5.959s-2.424-5.957-6.178-5.957h-5.01c-0.219,0-0.396,0.182-0.396,0.398v19.266
	c0,0.06,0.016,0.115,0.04,0.166c-0.027,0.054-0.045,0.112-0.045,0.176v12.148c0,0.123,0.061,0.23,0.151,0.305
	c-0.003,0.02-0.011,0.036-0.011,0.057v5.531c0,1.973,1.343,3.246,3.422,3.246s3.423-1.273,3.423-3.246v-5.494h0.387
	c0.16,0,0.305-0.098,0.365-0.244c0,0,3.63-8.521,3.887-9.131c0,0.797,0,8.977,0,8.977c0,0.217,0.178,0.398,0.396,0.398h0.977
	l-2.858,2.852v-2.889c0-0.217-0.175-0.391-0.39-0.391h-0.781c-0.215,0-0.389,0.174-0.389,0.391v8.295
	c0,0.215,0.174,0.387,0.389,0.387h0.781c0.215,0,0.39-0.172,0.39-0.387v-3.244c1.036,1.037,3.518,3.516,3.518,3.516
	c0.073,0.076,0.173,0.115,0.275,0.115h1.103c0.158,0,0.301-0.096,0.361-0.24c0.061-0.146,0.023-0.314-0.088-0.424L12.462,110.861z
	 M3.968,76.785c0.587,0,2.437,0,2.437,0c1.138,0,3.788,0.354,3.788,3.596c0,2.971-2.061,3.594-3.788,3.594c0,0-1.85,0-2.437,0
	V76.785z M6.774,106.939v5.51c0,1.684-1.425,1.814-1.862,1.814c-0.437,0-1.862-0.131-1.862-1.814v-5.505
	c0.142-0.062,0.24-0.204,0.24-0.366c0,0,0-8.195,0-8.977c0.25,0.584,3.323,7.805,3.815,8.959
	C6.919,106.591,6.774,106.744,6.774,106.939z"/>
</svg>
